<svg xmlns="http://www.w3.org/2000/svg" width="1175" height="88" viewBox="0 0 1175 88">
    <path fill="#7D7D7D" fill-rule="nonzero" d="M10.1 24.823H7.522V4.685c0-1.4-.359-2.1-1.075-2.1H3.653c-.716 0-1.074.7-1.074 2.1v66.069c0 2.37.573 3.554 1.72 3.554h1.503c1.147 0 1.72-1.185 1.72-3.554V51.962H10.1V72.1c0 3.195-.877 4.792-2.632 4.792H2.633C.878 76.892 0 75.295 0 72.1V4.685C0 1.562 1.236 0 3.707 0h2.686C8.865 0 10.1 1.562 10.1 4.685v20.138zm25.45 52.07H32.97l-1.827-25.578h-5.748l-2.15 25.577h-2.9L27.436 0h1.934l6.179 76.892zM30.93 48.73l-2.418-33.816-2.848 33.816h5.265zm20.99 28.161l-3.546-42.054v42.054h-2.58V0h2.58l4.996 62.408L58.313 0h2.579v76.892h-2.579V34.838l-3.546 42.054H51.92zM77.53 0c2.472 0 3.707 1.562 3.707 4.685V72.1c0 3.195-.877 4.792-2.632 4.792h-4.836c-1.755 0-2.632-1.597-2.632-4.792V4.685C71.137 1.562 72.373 0 74.844 0h2.686zm-.59 74.308c1.145 0 1.718-1.185 1.718-3.554V4.684c0-1.4-.358-2.1-1.074-2.1H74.79c-.716 0-1.074.7-1.074 2.1v66.07c0 2.37.573 3.554 1.719 3.554h1.504zM94.544 0h10.315v76.892h-2.579V2.585h-5.157V72.1c0 3.195-.878 4.792-2.633 4.792h-3.009v-2.584h1.343c1.147 0 1.72-1.185 1.72-3.554V0zm23.139 76.892h-2.579V0h2.579v76.892zM127.929 0h2.579v37.423L135.665 0h2.58l-5.48 38.123 5.48 38.77h-2.58l-5.157-36.885v36.884h-2.58V0zm29.049 72.477c-.287 2.944-1.164 4.415-2.633 4.415h-3.062v-2.584h1.397c1.039 0 1.576-.754 1.612-2.262L148.489 0h2.58l4.673 61.977L160.792 0h2.902l-6.716 72.477zm19.54-32.47v34.3h4.298c.573 0 .86-.592.86-1.776V42.16c0-1.435-.52-2.153-1.559-2.153h-3.6zm5.157-5.276V3.608c0-.682-.179-1.023-.537-1.023h-4.62v34.838h3.6c1.038 0 1.557-.897 1.557-2.692zM173.94 0h8.488c1.218 0 1.827.772 1.827 2.315v32.793c0 1.938-.555 3.051-1.665 3.338l.86.377c.536.251.805 1.167.805 2.746v32.9c0 1.616-.43 2.423-1.29 2.423h-9.025V0zm35.764 76.892h-2.578l-1.827-25.577h-5.749L197.4 76.892h-2.9L201.59 0h1.935l6.178 76.892zm-4.62-28.161l-2.418-33.816-2.847 33.816h5.265zM219.95 0h2.578v37.423h5.158V0h2.579v76.892h-2.579V40.008h-5.158v36.884h-2.578V0zm20.56 0h2.579v37.423h5.157V0h2.58v76.892h-2.58V40.008h-5.157v36.884h-2.58V0zm24.697 51.315c-1.039 0-1.988-.332-2.847-.996-.86-.664-1.29-1.965-1.29-3.904v-44.1c0-1.543.61-2.315 1.827-2.315h8.489v76.892h-2.58V51.315l-5.157 25.577h-2.579l5.212-25.577h-1.075zm-1.558-5.277c0 1.795.52 2.693 1.558 2.693h3.6V2.585h-4.62c-.359 0-.538.34-.538 1.023v42.43zm50.899 30.854L311 34.838v42.054h-2.579V0h2.579l4.997 62.408L320.94 0h2.58v76.892h-2.58V34.838l-3.546 42.054h-2.847zM340.157 0c2.472 0 3.708 1.562 3.708 4.685V72.1c0 3.195-.878 4.792-2.633 4.792h-4.835c-1.755 0-2.633-1.597-2.633-4.792V4.685C333.764 1.562 335 0 337.471 0h2.687zm-.59 74.308c1.146 0 1.719-1.185 1.719-3.554V4.684c0-1.4-.358-2.1-1.075-2.1h-2.793c-.717 0-1.075.7-1.075 2.1v66.07c0 2.37.573 3.554 1.72 3.554h1.504zM361.847 0h2.578v37.423L369.583 0h2.579l-5.48 38.123 5.48 38.77h-2.58l-5.157-36.885v36.884h-2.579V40.008l-5.158 36.884h-2.578l5.48-38.769L354.11 0h2.578l5.158 37.423V0zm29.263 0v2.585h-6.125v34.838h6.125v2.585h-6.125v34.3h6.125v2.584h-8.703V0h8.703zm43.216 37.423c1.039 0 1.988.332 2.848.996.86.664 1.289 1.966 1.289 3.904v32.254c0 1.544-.609 2.315-1.827 2.315h-8.488V0h8.703v2.585h-6.124v34.838h3.6zm1.558 5.277c0-1.795-.52-2.692-1.558-2.692h-3.6v34.3h4.62c.36 0 .538-.341.538-1.023V42.7zm21.313 29.777c-.287 2.944-1.164 4.415-2.633 4.415h-3.062v-2.584h1.397c1.038 0 1.576-.754 1.611-2.262L448.708 0h2.579l4.674 61.977L461.011 0h2.901l-6.715 72.477zm23.622-69.892v74.307h-2.578V2.585h-4.084V0h10.262v2.585h-3.6zm25.128 74.307h-2.58v-51.1l-6.124 51.1h-2.579V0h2.579v56.808L503.368 0h2.579v76.892zM550.72 0h2.578v74.308h5.158V0h2.579v76.892h-18.052V0h2.579v74.308h5.158V0zm20.56 0h2.579v37.423L579.018 0h2.578l-5.48 38.123 5.48 38.77h-2.578l-5.158-36.885v36.884h-2.579V0zm23.14 76.892h-2.58V0h2.58v76.892zm12.823 0V84h-2.579v-9.692h1.343c1.147 0 1.72-1.185 1.72-3.554V0h10.315v74.308h1.29V84h-2.58v-7.108h-9.509zm2.848-2.584h5.372V2.585h-5.158V72.1c0 .862-.071 1.597-.214 2.208zM632.64 0h10.315v76.892h-2.579V2.585h-5.157V72.1c0 3.195-.878 4.792-2.633 4.792h-3.009v-2.584h1.344c1.146 0 1.719-1.185 1.719-3.554V0zm31.843 76.892h-2.58v-51.1l-6.124 51.1H653.2V0h2.579v56.808L661.904 0h2.579v76.892zm12.823-36.884v34.3h4.298c.574 0 .86-.593.86-1.777V42.16c0-1.435-.52-2.153-1.558-2.153h-3.6zm5.158-5.277V3.608c0-.682-.179-1.023-.537-1.023h-4.62v34.838h3.6c1.038 0 1.557-.897 1.557-2.692zM674.728 0h8.488c1.218 0 1.827.772 1.827 2.315v32.793c0 1.938-.555 3.051-1.666 3.338l.86.377c.537.251.806 1.167.806 2.746v32.9c0 1.616-.43 2.423-1.29 2.423h-9.025V0zm31.842 76.892h-2.578v-51.1l-6.125 51.1h-2.579V0h2.579v56.808L703.992 0h2.578v76.892zm16.37 0l-3.546-42.054v42.054h-2.579V0h2.58l4.996 62.408L729.334 0h2.578v76.892h-2.578V34.838l-3.546 42.054h-2.848zm48.589 0V84h-2.58v-9.692h1.344c1.146 0 1.72-1.185 1.72-3.554V0h10.315v74.308h1.29V84h-2.58v-7.108h-9.51zm2.847-2.584h5.373V2.585h-5.158V72.1c0 .862-.071 1.597-.215 2.208zM796.924 0h10.316v76.892h-2.579V2.585h-5.158V72.1c0 3.195-.877 4.792-2.632 4.792h-3.009v-2.584h1.343c1.146 0 1.72-1.185 1.72-3.554V0zm24.698 51.315c-1.039 0-1.988-.332-2.848-.996-.86-.664-1.29-1.965-1.29-3.904v-44.1c0-1.543.61-2.315 1.828-2.315h8.488v76.892h-2.579V51.315l-5.157 25.577h-2.58l5.212-25.577h-1.074zm-1.558-5.277c0 1.795.519 2.693 1.558 2.693h3.6V2.585H820.6c-.358 0-.537.34-.537 1.023v42.43zm47.353-6.03v34.3h4.298c.573 0 .86-.593.86-1.777V42.16c0-1.435-.52-2.153-1.559-2.153h-3.6zm5.157-5.277V3.608c0-.682-.179-1.023-.537-1.023h-4.62v34.838h3.6c1.038 0 1.557-.897 1.557-2.692zM864.838 0h8.488c1.218 0 1.827.772 1.827 2.315v32.793c0 1.938-.555 3.051-1.665 3.338l.86.377c.537.251.805 1.167.805 2.746v32.9c0 1.616-.43 2.423-1.29 2.423h-9.025V0zm35.765 76.892h-2.58l-1.826-25.577h-5.749L888.3 76.892h-2.9L892.49 0h1.934l6.179 76.892zm-4.62-28.161l-2.419-33.816-2.847 33.816h5.265zM918.583 0h2.579v74.308h5.158V0h2.578v76.892h-18.051V0h2.578v74.308h5.158V0zm26.954 0c2.471 0 3.707 1.562 3.707 4.685V72.1c0 3.195-.878 4.792-2.633 4.792h-4.835c-1.755 0-2.633-1.597-2.633-4.792V4.685c0-3.123 1.236-4.685 3.708-4.685h2.686zm-.591 74.308c1.146 0 1.72-1.185 1.72-3.554V4.684c0-1.4-.36-2.1-1.075-2.1h-2.794c-.717 0-1.075.7-1.075 2.1v66.07c0 2.37.573 3.554 1.72 3.554h1.504zm17.122 2.584h-2.58V0h8.705v2.585h-6.125v74.307zM984.832 0c2.471 0 3.707 1.562 3.707 4.685V72.1c0 3.195-.878 4.792-2.633 4.792h-4.835c-1.755 0-2.632-1.597-2.632-4.792V4.685c0-3.123 1.235-4.685 3.707-4.685h2.686zm-.591 74.308c1.146 0 1.72-1.185 1.72-3.554V4.684c0-1.4-.359-2.1-1.075-2.1h-2.794c-.716 0-1.075.7-1.075 2.1v66.07c0 2.37.573 3.554 1.72 3.554h1.504zm47.514-34.3h-4.782v-2.585h4.782c1.039 0 1.558-.897 1.558-2.692V4.685c0-1.4-.358-2.1-1.074-2.1h-3.01c-.715 0-1.074.7-1.074 2.1v20.138h-2.578V4.685c0-3.123 1.235-4.685 3.707-4.685h2.9c2.472 0 3.708 1.562 3.708 4.685v30.423c0 1.938-.555 3.051-1.666 3.338l.86.377c.537.251.806 1.167.806 2.746V72.1c0 3.195-.878 4.792-2.633 4.792h-5.05c-1.755 0-2.632-1.597-2.632-4.792V51.962h2.578v18.792c0 2.37.573 3.554 1.72 3.554h1.719c1.146 0 1.72-1.185 1.72-3.554V42.162c0-1.436-.52-2.154-1.559-2.154zm16.96 36.884V84h-2.578v-9.692h1.343c1.146 0 1.72-1.185 1.72-3.554V0h10.315v74.308h1.29V84h-2.58v-7.108h-9.51zm2.848-2.584h5.373V2.585h-5.158V72.1c0 .862-.071 1.597-.215 2.208zM1077.443 0c2.47 0 3.707 1.562 3.707 4.685V72.1c0 3.195-.878 4.792-2.633 4.792h-4.835c-1.755 0-2.633-1.597-2.633-4.792V4.685c0-3.123 1.236-4.685 3.707-4.685h2.686zm-.592 74.308c1.147 0 1.72-1.185 1.72-3.554V4.684c0-1.4-.358-2.1-1.075-2.1h-2.794c-.716 0-1.074.7-1.074 2.1v66.07c0 2.37.573 3.554 1.72 3.554h1.503zm20.722-34.3h-3.6v36.884h-2.578V0h8.488c1.218 0 1.827.772 1.827 2.315v32.793c0 1.938-.43 3.24-1.29 3.904-.86.664-1.808.996-2.847.996zm1.558-5.277V3.608c0-.682-.179-1.023-.537-1.023h-4.62v34.838h3.599c1.039 0 1.558-.897 1.558-2.692zM1118.348 0c2.472 0 3.707 1.562 3.707 4.685V72.1c0 3.195-.877 4.792-2.632 4.792h-4.835c-1.756 0-2.633-1.597-2.633-4.792V4.685c0-3.123 1.236-4.685 3.707-4.685h2.686zm-.59 74.308c1.145 0 1.719-1.185 1.719-3.554V4.684c0-1.4-.359-2.1-1.075-2.1h-2.794c-.716 0-1.074.7-1.074 2.1v66.07c0 2.37.573 3.554 1.719 3.554h1.504zm17.121-34.3v34.3h4.298c.573 0 .86-.593.86-1.777V42.16c0-1.435-.52-2.153-1.558-2.153h-3.6zm5.158-5.277V3.608c0-.682-.18-1.023-.537-1.023h-4.62v34.838h3.599c1.039 0 1.558-.897 1.558-2.692zM1132.3 0h8.49c1.217 0 1.826.772 1.826 2.315v32.793c0 1.938-.555 3.051-1.666 3.338l.86.377c.537.251.806 1.167.806 2.746v32.9c0 1.616-.43 2.423-1.29 2.423h-9.026V0zm43.7 0v76.892h-2.579V51.315l-5.158 25.577h-2.578l5.211-25.577h-1.074c-1.04 0-1.988-.332-2.848-.996-.86-.664-1.29-1.965-1.29-3.904v-44.1c0-1.543.61-2.315 1.827-2.315H1176zm-2.579 2.585h-4.62c-.358 0-.538.34-.538 1.023v42.43c0 1.795.52 2.693 1.559 2.693h3.6V2.585zM1155.44.215v8.67c-.359 2.153-1.218 3.284-2.58 3.392v-1.562c1.04-.18 1.559-1.202 1.559-3.069v-.323h-1.558V.215h2.579z"/>
</svg>
